<svg width="183" height="99" viewBox="0 0 183 99" fill="none" xmlns="http://www.w3.org/2000/svg">
<g style="mix-blend-mode:hard-light">
<g style="mix-blend-mode:luminosity">
<path d="M182.01 0.03844C182.5 0.528088 182.5 0.528088 182.999 1.02763C182.797 4.21388 181.824 7.29392 180.99 10.3631C180.838 10.9253 180.686 11.4876 180.53 12.0669C179.045 17.4782 177.344 22.8108 175.595 28.1413C175.016 29.9307 174.457 31.7259 173.9 33.522C172.613 37.6583 171.264 41.7723 169.893 45.8811C169.706 46.4398 169.706 46.4398 169.516 47.0098C167.436 53.2457 165.297 59.4608 163.123 65.6648C162.982 66.0696 162.84 66.4743 162.695 66.8913C162.296 68.0306 161.896 69.1692 161.494 70.3074C161.375 70.6486 161.256 70.9899 161.133 71.3414C160.305 73.6758 160.305 73.6758 159.754 74.2275C158.668 74.4266 158.668 74.4266 157.281 74.2275C156.203 73.36 155.309 72.5324 154.365 71.5362C154.093 71.259 153.82 70.9818 153.539 70.6961C152.668 69.8078 151.806 68.9114 150.944 68.0141C149.809 66.8469 148.672 65.6828 147.534 64.5191C147.262 64.2405 146.991 63.9618 146.711 63.6747C144.721 61.641 142.663 59.7155 140.464 57.9059C138.627 58.7526 137.753 59.6645 136.508 61.2753C134.703 63.528 132.865 65.7365 130.943 67.8905C130.699 68.1757 130.454 68.4609 130.202 68.7547C129.093 69.9814 128.403 70.7111 126.747 71.0068C125.627 70.7653 125.627 70.7653 124.637 69.7761C124.283 68.3422 123.981 66.9294 123.71 65.4793C123.626 65.0424 123.541 64.6055 123.454 64.1553C122.815 60.8108 122.224 57.458 121.639 54.1037C121.554 53.6255 121.468 53.1473 121.38 52.6546C120.999 50.4877 120.647 48.3345 120.418 46.1458C119.88 41.446 118.507 38.7185 115.279 35.3227C113.55 33.5026 112.102 31.5211 110.665 29.4668C110.302 28.9689 110.302 28.9689 109.931 28.461C108.936 27.028 108.331 26.1501 108.262 24.3817C109.524 21.8572 112.759 21.104 115.24 20.0695C115.846 19.8164 115.846 19.8164 116.464 19.5582C134.933 11.9308 153.801 6.02159 173.191 1.21696C173.677 1.09654 174.163 0.976125 174.663 0.852056C177.121 0.296744 179.484 -0.1338 182.01 0.03844Z" fill="white"/>
<path d="M175.581 11.4141C176.212 12.6748 175.989 12.9998 175.573 14.3204C175.39 14.913 175.39 14.913 175.202 15.5176C175.065 15.9467 174.928 16.3758 174.787 16.8179C174.579 17.4845 174.579 17.4845 174.367 18.1646C173.92 19.5941 173.468 21.0219 173.016 22.4497C172.72 23.3914 172.425 24.3333 172.13 25.2752C171.559 27.0979 170.986 28.92 170.412 30.7417C169.304 34.259 168.223 37.7842 167.148 41.3117C165.036 48.2399 162.922 55.1262 160.249 61.8626C159.772 63.0981 159.3 64.3352 158.827 65.5721C158.477 66.479 158.127 67.3858 157.776 68.2923C155.985 66.7937 154.25 65.2912 152.614 63.6246C151.471 62.4613 150.302 61.3724 149.059 60.317C146.319 57.9581 143.811 55.3586 141.273 52.7868C140.184 51.6864 139.088 50.5923 137.992 49.4978C145.161 41.6852 152.698 34.2392 160.206 26.7559C161.944 25.0223 163.682 23.2872 165.419 21.5523C168.805 18.1715 172.193 14.7922 175.581 11.4141Z" fill="#303099"/>
<path d="M111.778 71.7545C112.767 72.3418 112.767 72.3418 113.262 73.2382C113.355 74.4129 113.355 74.4129 112.767 75.7112C109.875 78.0288 106.275 79.4127 102.906 80.8735C102.36 81.112 101.814 81.3506 101.251 81.5963C97.2764 83.312 93.2818 84.8496 89.1713 86.2053C87.6933 86.7098 86.2298 87.2522 84.7629 87.7882C81.2975 89.0276 77.8068 90.0674 74.2509 91.0127C73.6206 91.1804 72.9903 91.3482 72.341 91.521C62.711 94.0365 52.899 95.7311 43.0296 96.9787C42.6211 97.0346 42.2125 97.0905 41.7916 97.148C30.0035 98.7415 17.5905 98.4943 5.74965 97.5351C5.26841 97.4964 4.78717 97.4577 4.29135 97.4178C1.12195 97.1115 1.12195 97.1115 0 95.9895C0.185473 94.9385 0.185473 94.9385 0.494594 94.0112C0.835226 94.0094 1.17586 94.0076 1.52681 94.0057C24.5881 94.0012 24.5881 94.0012 47.481 91.5382C48.1536 91.429 48.8263 91.32 49.499 91.2112C69.5712 87.9252 89.2847 81.7043 107.327 72.249C108.835 71.4948 110.117 71.6379 111.778 71.7545Z" fill="#9B9DA3"/>
<path d="M166.184 13.8872C166.673 14.132 166.673 14.132 167.173 14.3818C166.927 14.6215 166.682 14.8612 166.429 15.1082C166.093 15.4398 165.757 15.7713 165.411 16.1129C165.084 16.4342 164.757 16.7555 164.42 17.0866C163.45 18.0951 162.537 19.1178 161.626 20.1778C159.275 22.8852 156.706 25.3663 154.151 27.8788C152.464 29.5482 150.812 31.2121 149.28 33.0257C147.651 34.9243 145.885 36.6561 144.091 38.3966C143.791 38.689 143.491 38.9815 143.183 39.2827C141.931 40.503 140.68 41.723 139.416 42.9308C134.403 47.7191 134.403 47.7191 131.562 53.9493C131.259 54.6572 130.942 55.3596 130.611 56.0552C130.462 56.374 130.312 56.6927 130.157 57.0212C130.009 57.3336 129.86 57.646 129.707 57.9679C129.551 58.2994 129.395 58.6309 129.234 58.9725C128.857 59.7717 128.479 60.57 128.1 61.3682C127.773 61.205 127.447 61.0418 127.111 60.8736C126.787 59.7233 126.787 59.7233 126.508 58.2036C126.404 57.6495 126.3 57.0955 126.193 56.5246C126.088 55.94 125.983 55.3554 125.874 54.753C125.769 54.1875 125.664 53.622 125.555 53.0393C125.346 51.9104 125.139 50.781 124.935 49.6511C124.742 48.5885 124.544 47.5267 124.34 46.4661C124.25 45.9913 124.159 45.5165 124.066 45.0273C123.985 44.6118 123.905 44.1964 123.821 43.7683C123.637 42.4923 123.506 41.3855 123.649 40.1007C124.331 39.385 124.331 39.385 125.304 38.8043C125.67 38.5802 126.035 38.3561 126.411 38.1252C126.816 37.8896 127.22 37.654 127.636 37.4113C128.055 37.1572 128.474 36.9032 128.906 36.6414C129.81 36.0938 130.717 35.5502 131.626 35.0101C133.525 33.8803 135.411 32.7292 137.298 31.5786C138.262 30.9907 139.228 30.404 140.194 29.8185C143.17 28.0135 146.123 26.1753 149.058 24.3046C152.577 22.0704 156.118 19.8716 159.681 17.7088C160.515 17.2017 161.347 16.6907 162.178 16.1797C162.685 15.8739 163.191 15.5682 163.713 15.2531C164.166 14.9775 164.619 14.7019 165.085 14.4179C165.448 14.2428 165.81 14.0676 166.184 13.8872Z" fill="#A3A3EC"/>
<path d="M169.646 7.45752C169.331 7.63101 169.016 7.80451 168.692 7.98326C160.979 12.2415 153.389 16.6543 145.906 21.3061C145.484 21.5676 145.062 21.8291 144.627 22.0985C138.614 25.8294 132.589 29.6131 126.965 33.9183C126.483 34.2855 126.001 34.6527 125.504 35.0311C125.093 35.355 124.683 35.6789 124.26 36.0126C123.155 36.6385 123.155 36.6385 122.173 36.683C120.617 35.8414 119.724 34.4859 118.703 33.0836C118.493 32.8041 118.283 32.5245 118.066 32.2365C116.73 30.4475 115.476 28.6138 114.252 26.7467C114.759 25.2693 115.141 24.8227 116.535 24.0617C117.351 23.742 117.351 23.742 118.184 23.4159C118.48 23.2977 118.777 23.1795 119.083 23.0577C120.056 22.6728 121.033 22.2983 122.011 21.9244C122.691 21.6592 123.371 21.3936 124.051 21.1278C129.8 18.8922 135.598 16.8132 141.455 14.8764C141.999 14.6948 142.543 14.5132 143.104 14.326C150.585 11.8375 158.081 9.58254 165.742 7.71544C168.226 7.03147 168.226 7.03147 169.646 7.45752Z" fill="#303099"/>
<path d="M135.518 53.4546C136.008 53.781 136.498 54.1075 137.002 54.4438C136.233 56.3316 135.006 57.5063 133.54 58.8951C133.776 58.1735 134.013 57.4523 134.251 56.7313C134.383 56.3296 134.515 55.9279 134.651 55.5141C135.024 54.4438 135.024 54.4438 135.518 53.4546Z" fill="#A3A3EC"/>
<path d="M169.646 7.45741C166.307 9.43578 166.307 9.43578 165.194 9.43578C165.689 7.952 165.689 7.952 166.585 7.33376C167.835 6.90525 168.42 7.01973 169.646 7.45741Z" fill="#303099"/>
</g>
</g>
</svg>
