<svg width="100" height="102" viewBox="0 0 100 102" fill="none" xmlns="http://www.w3.org/2000/svg">
<path d="M47.7753 85.5815L22.8736 77.1241C20.2423 76.2327 18.8375 73.3731 19.7289 70.7417C20.6203 68.1104 23.4798 66.7056 26.104 67.597L51.0057 76.0544C53.637 76.9458 55.0419 79.8053 54.1505 82.4296C53.2591 85.068 50.4067 86.48 47.7753 85.5815Z" stroke="white" stroke-opacity="0.9" stroke-width="3.2054" stroke-miterlimit="10"/>
<path d="M44.5029 95.2226L19.6012 86.7651C16.9699 85.8738 15.565 83.0142 16.4564 80.39C17.3478 77.7586 20.2073 76.3538 22.8387 77.2452L47.7404 85.6955C50.3717 86.5869 51.7765 89.4464 50.8852 92.0778C49.9866 94.7092 47.1342 96.114 44.5029 95.2226Z" stroke="white" stroke-opacity="0.9" stroke-width="3.2054" stroke-miterlimit="10"/>
<path d="M22.368 41.5899C22.3965 41.6755 22.4179 41.754 22.4464 41.8395C23.0026 43.6152 26.2829 54.868 24.9138 67.3544L51.6267 76.1685C57.9591 65.3221 67.2936 58.2409 68.7983 57.1428C68.8696 57.0928 68.9409 57.043 69.0051 56.993C69.7325 56.4725 70.4384 55.9162 71.123 55.3244C75.1449 51.8515 78.3111 47.2805 80.0938 41.8752C85.3494 25.9587 76.7066 8.79422 60.7901 3.53863C44.8736 -1.71696 27.7091 6.92588 22.4536 22.8424C20.6637 28.2549 20.4854 33.81 21.6549 38.9943C21.8546 39.8642 22.0899 40.7342 22.368 41.5899Z" stroke="white" stroke-opacity="0.9" stroke-width="3.2054" stroke-miterlimit="10"/>
<path d="M20.9634 87.35C20.6639 92.627 23.9157 97.6543 29.1784 99.3943C34.3698 101.106 39.8964 99.0734 42.8344 94.7734L20.9634 87.35Z" stroke="white" stroke-opacity="0.9" stroke-width="3.2054" stroke-miterlimit="10"/>
<path d="M33.2796 69.9716L41.2165 45.9185C42.0009 43.551 40.7102 40.9981 38.3427 40.2136C35.9752 39.4292 33.4223 40.72 32.6378 43.0875C31.8534 45.455 33.1442 48.0079 35.5117 48.7923L45.0388 51.9371" stroke="white" stroke-opacity="0.9" stroke-width="3.2054" stroke-miterlimit="10"/>
<path d="M43.7471 73.4302L51.6839 49.3772C52.4684 47.0097 55.0213 45.726 57.3888 46.5033C59.7563 47.2877 61.0399 49.8407 60.2626 52.2082C59.4782 54.5757 56.9253 55.8593 54.5578 55.082L45.0307 51.9372" stroke="white" stroke-opacity="0.9" stroke-width="3.2054" stroke-miterlimit="10"/>
<path d="M85.7324 50.1615L93.7763 52.8214" stroke="white" stroke-opacity="0.9" stroke-width="3.2054" stroke-miterlimit="10" stroke-linecap="round"/>
<path d="M89.4219 40.0283L97.8009 38.7661" stroke="white" stroke-opacity="0.9" stroke-width="3.2054" stroke-miterlimit="10" stroke-linecap="round"/>
<path d="M80.1074 58.8543L86.0832 64.8586" stroke="white" stroke-opacity="0.9" stroke-width="3.2054" stroke-miterlimit="10" stroke-linecap="round"/>
<path d="M11.0213 25.5023L2.97754 22.8495" stroke="white" stroke-opacity="0.9" stroke-width="3.2054" stroke-miterlimit="10" stroke-linecap="round"/>
<path d="M14.0939 15.1623L8.11816 9.15796" stroke="white" stroke-opacity="0.9" stroke-width="3.2054" stroke-miterlimit="10" stroke-linecap="round"/>
<path d="M10.3719 35.8351L2 37.0973" stroke="white" stroke-opacity="0.9" stroke-width="3.2054" stroke-miterlimit="10" stroke-linecap="round"/>
</svg>
