<svg width="156" height="40" viewBox="0 0 156 40" fill="none" xmlns="http://www.w3.org/2000/svg">
<path d="M2.5 31V7.71875H12.0312C13.8229 7.71875 15.375 8.04167 16.6875 8.6875C18 9.32292 19.0104 10.2292 19.7188 11.4062C20.4375 12.5833 20.7969 13.9792 20.7969 15.5938C20.7969 17.1979 20.4375 18.5885 19.7188 19.7656C19 20.9427 17.9792 21.8542 16.6562 22.5C15.3438 23.1458 13.7917 23.4688 12 23.4688H8.125V31H2.5ZM8.125 18.7969H11.6406C12.7656 18.7969 13.6562 18.5104 14.3125 17.9375C14.9792 17.3542 15.3125 16.5729 15.3125 15.5938C15.3125 14.6042 14.9792 13.8229 14.3125 13.25C13.6562 12.6667 12.7656 12.375 11.6406 12.375H8.125V18.7969ZM22.875 31V14.5H28.0781V17.4062H28.125C28.4271 16.3542 28.8958 15.599 29.5312 15.1406C30.1771 14.6719 31.0521 14.4375 32.1562 14.4375C32.4479 14.4375 32.7083 14.4427 32.9375 14.4531C33.1771 14.4531 33.4062 14.4583 33.625 14.4688V18.9062C33.4271 18.8958 33.1198 18.8854 32.7031 18.875C32.2865 18.8646 31.8854 18.8594 31.5 18.8594C30.5312 18.8594 29.7448 19.1823 29.1406 19.8281C28.5469 20.474 28.25 21.3802 28.25 22.5469V31H22.875ZM43.1875 31.375C41.5 31.375 40.0156 31.0052 38.7344 30.2656C37.4635 29.526 36.4688 28.5104 35.75 27.2188C35.0417 25.9167 34.6875 24.4271 34.6875 22.75C34.6875 21.0729 35.0417 19.5885 35.75 18.2969C36.4688 16.9948 37.4583 15.974 38.7188 15.2344C39.9792 14.4948 41.4219 14.125 43.0469 14.125C44.7031 14.125 46.1562 14.4896 47.4062 15.2188C48.6667 15.9375 49.651 16.9375 50.3594 18.2188C51.0677 19.4896 51.4219 20.9583 51.4219 22.625V24.0781H39.9375C39.9688 25.1302 40.2812 25.9635 40.875 26.5781C41.4792 27.1927 42.3125 27.5 43.375 27.5C44.1667 27.5 44.8281 27.3385 45.3594 27.0156C45.901 26.6927 46.2708 26.2604 46.4688 25.7188H51.2969C51.099 26.8229 50.6198 27.8021 49.8594 28.6562C49.099 29.5104 48.1406 30.1771 46.9844 30.6562C45.8385 31.1354 44.5729 31.375 43.1875 31.375ZM39.9688 20.8594H46.4062C46.2812 19.9948 45.9375 19.3177 45.375 18.8281C44.8125 18.3385 44.0833 18.0938 43.1875 18.0938C42.2812 18.0938 41.5469 18.3385 40.9844 18.8281C40.4219 19.3177 40.0833 19.9948 39.9688 20.8594ZM53.6875 37.5312V14.5H59V16.6562H59.0781C60.0677 14.9792 61.651 14.1406 63.8281 14.1406C65.224 14.1406 66.4531 14.5052 67.5156 15.2344C68.5781 15.9635 69.4062 16.974 70 18.2656C70.6042 19.5573 70.9062 21.0417 70.9062 22.7188C70.9062 24.4583 70.6094 25.9792 70.0156 27.2812C69.4323 28.5729 68.6042 29.5781 67.5312 30.2969C66.4688 31.0052 65.2188 31.3594 63.7812 31.3594C61.5521 31.3594 60 30.4219 59.125 28.5469H59.0625V37.5312H53.6875ZM62.2656 27.0625C63.2552 27.0625 64.0365 26.6771 64.6094 25.9062C65.1823 25.1354 65.4688 24.0729 65.4688 22.7188C65.4688 21.375 65.1823 20.3229 64.6094 19.5625C64.0365 18.8021 63.2552 18.4219 62.2656 18.4219C61.2552 18.4219 60.4323 18.8125 59.7969 19.5938C59.1615 20.375 58.8438 21.4167 58.8438 22.7188C58.8438 24.0417 59.1615 25.099 59.7969 25.8906C60.4323 26.6719 61.2552 27.0625 62.2656 27.0625ZM79.6562 31V7.71875H87.9688L90.9688 16.8594C91.1979 17.599 91.474 18.5521 91.7969 19.7188C92.1198 20.8854 92.4271 22.0156 92.7188 23.1094C93.0104 22.0156 93.3125 20.8854 93.625 19.7188C93.9479 18.5521 94.2188 17.599 94.4375 16.8594L97.4062 7.71875H105.734V31H100.219V20.9219C100.219 20.1302 100.24 19.0625 100.281 17.7188C100.333 16.3646 100.375 14.9948 100.406 13.6094C100.021 15.0156 99.6406 16.3906 99.2656 17.7344C98.8906 19.0781 98.5781 20.1406 98.3281 20.9219L94.9844 31H90.4375L87.0312 20.9219C86.7917 20.1719 86.4896 19.1615 86.125 17.8906C85.7604 16.6094 85.3854 15.2865 85 13.9219C85.0312 15.2552 85.0677 16.5677 85.1094 17.8594C85.151 19.1406 85.1719 20.1615 85.1719 20.9219V31H79.6562ZM115.203 31.3594C113.755 31.3594 112.495 31.0052 111.422 30.2969C110.359 29.5781 109.531 28.5729 108.938 27.2812C108.354 25.9792 108.062 24.4583 108.062 22.7188C108.062 21.0417 108.365 19.5573 108.969 18.2656C109.573 16.974 110.406 15.9635 111.469 15.2344C112.531 14.5052 113.76 14.1406 115.156 14.1406C117.323 14.1406 118.906 14.9792 119.906 16.6562H119.969V14.5H125.234V31H119.969V28.5469H119.922C119.495 29.4635 118.87 30.1615 118.047 30.6406C117.234 31.1198 116.286 31.3594 115.203 31.3594ZM116.703 27.0625C117.724 27.0625 118.547 26.6719 119.172 25.8906C119.807 25.099 120.125 24.0417 120.125 22.7188C120.125 21.4167 119.807 20.375 119.172 19.5938C118.547 18.8125 117.724 18.4219 116.703 18.4219C115.714 18.4219 114.932 18.8021 114.359 19.5625C113.797 20.3229 113.516 21.375 113.516 22.7188C113.516 24.0729 113.797 25.1354 114.359 25.9062C114.932 26.6771 115.714 27.0625 116.703 27.0625ZM137.016 14.5V18.6562H133.625V25.4531C133.625 25.9844 133.729 26.349 133.938 26.5469C134.156 26.7448 134.562 26.8438 135.156 26.8438H137.016V31H133.984C131.995 31 130.542 30.6302 129.625 29.8906C128.708 29.1406 128.25 27.9635 128.25 26.3594V10H133.625V14.5H137.016ZM146.812 31.375C145.125 31.375 143.641 31.0052 142.359 30.2656C141.089 29.526 140.094 28.5104 139.375 27.2188C138.667 25.9167 138.312 24.4271 138.312 22.75C138.312 21.0729 138.667 19.5885 139.375 18.2969C140.094 16.9948 141.083 15.974 142.344 15.2344C143.604 14.4948 145.047 14.125 146.672 14.125C148.328 14.125 149.781 14.4896 151.031 15.2188C152.292 15.9375 153.276 16.9375 153.984 18.2188C154.693 19.4896 155.047 20.9583 155.047 22.625V24.0781H143.562C143.594 25.1302 143.906 25.9635 144.5 26.5781C145.104 27.1927 145.938 27.5 147 27.5C147.792 27.5 148.453 27.3385 148.984 27.0156C149.526 26.6927 149.896 26.2604 150.094 25.7188H154.922C154.724 26.8229 154.245 27.8021 153.484 28.6562C152.724 29.5104 151.766 30.1771 150.609 30.6562C149.464 31.1354 148.198 31.375 146.812 31.375ZM143.594 20.8594H150.031C149.906 19.9948 149.562 19.3177 149 18.8281C148.438 18.3385 147.708 18.0938 146.812 18.0938C145.906 18.0938 145.172 18.3385 144.609 18.8281C144.047 19.3177 143.708 19.9948 143.594 20.8594Z" fill="white"/>
<path d="M1 39H27" stroke="white" stroke-opacity="0.5" stroke-width="2" stroke-linecap="round"/>
</svg>
