<svg width="362" height="168" viewBox="0 0 362 168" fill="none" xmlns="http://www.w3.org/2000/svg">
<path d="M56.6895 127.5L57.6304 122.684C57.2333 122.523 56.8477 122.367 56.4739 122.217C54.2962 121.341 52.5152 120.625 51.1591 119.756C49.6721 118.802 49.2695 118.031 49.2695 117.16V80.0931L101.992 25.723V117.16C101.992 119.051 100.842 120.258 97.1015 122.978L90.884 127.5H98.572H139.052L139.993 122.684C139.596 122.523 139.21 122.367 138.836 122.217C136.659 121.341 134.878 120.625 133.522 119.756C132.035 118.802 131.632 118.031 131.632 117.16V63.8057L162.074 126.074C162.156 126.256 162.253 126.744 161.526 127.813C160.816 128.854 159.636 129.933 158.41 130.798L154.82 133.332L158.833 135.123L212.593 159.123L219.677 162.285L215.772 155.582L199.416 127.5H255.14H262.828H272.472H276.688H303.308L304.249 122.684C303.852 122.523 303.466 122.367 303.093 122.217C300.915 121.341 299.134 120.625 297.778 119.756C296.291 118.802 295.888 118.031 295.888 117.16V80.0931L356.623 17.4604L358.311 15.7196L356.623 13.9792L346.223 3.25922L345.486 2.5H344.428H276.598H272.472H262.828H256.109H186.872H181.23H180.405H180.172H98.8673H98.572H97.8095H91.8524H16.2095H9.4899L14.5754 6.89206C14.6504 6.95679 14.7243 7.02059 14.7972 7.0835C16.5246 8.57466 17.6741 9.56698 18.4726 10.6572C19.1977 11.6473 19.6295 12.7296 19.6295 14.44V117.16C19.6295 119.051 18.4795 120.258 14.739 122.978L8.52151 127.5H16.2095H56.6895ZM187.114 8.56525C187.945 9.30682 188.537 9.87116 189.023 10.5325L187.114 8.56525ZM247.352 49.22H219.772V26.38H252.152C253.292 26.38 254.537 26.9964 255.558 28.0012C256.051 28.4867 256.417 28.9939 256.639 29.4211C256.832 29.7929 256.852 29.9749 256.856 29.9745C256.857 29.9744 256.857 29.9589 256.859 29.9283L261.568 31.2774L266.248 22.3164V108.403L261.546 99.8008L256.881 101.38C256.844 101.14 256.884 101.009 256.884 101.009C256.884 101.009 256.844 101.141 256.644 101.429C256.332 101.88 255.816 102.436 255.159 102.99C254.51 103.537 253.808 104.014 253.181 104.339C252.522 104.682 252.184 104.735 252.154 104.74C252.152 104.74 252.152 104.74 252.152 104.74H219.772V71.02H241.112H242.85L243.456 69.3905L249.696 52.5905L250.947 49.22H247.352ZM190.132 19.6861V111.559L156.264 53.4097L190.132 19.6861ZM155.7 24.14L131.632 47.151V24.14H155.7ZM73.3371 24.14L49.2695 47.151V24.14H73.3371ZM319.956 24.14L295.888 47.151V24.14H319.956Z" stroke="url(#paint0_radial_236_531)" stroke-width="5"/>
<g style="mix-blend-mode:screen">
<path d="M235.497 159H228.906C229.289 158.699 229.672 158.344 229.672 157.933V139.692C229.672 139.172 229.125 138.817 228.633 138.489H236.208L241.076 148.744L245.589 138.489H253.301C252.891 138.844 252.481 139.254 252.481 139.774V157.933C252.481 158.371 252.864 158.727 253.247 159H246.847C247.503 158.617 248.269 158.043 248.269 157.496V145.326L242.389 159H239.764L233.884 145.326V157.496C233.884 158.043 234.759 158.617 235.497 159Z" fill="white" fill-opacity="0.9"/>
<path d="M262.214 149.647L260.902 141.962L259.288 149.647H262.214ZM258.44 159H252.205C252.807 158.644 253.135 158.289 253.189 157.933L258.687 138.489H263.992L268.942 157.933C269.106 158.289 269.681 158.644 270.392 159H264.129C264.594 158.48 264.867 158.098 264.731 157.414L262.871 152.218H258.687C258.687 152.218 257.456 157.222 257.401 157.414C257.182 158.098 257.538 158.48 258.44 159Z" fill="white" fill-opacity="0.9"/>
<path d="M282.086 160.313L274.5 161.5C276.524 159.886 276.48 160.75 276.781 159V142.181C274.948 142.181 272.76 142.181 272.76 142.181C271.065 142.181 270.299 142.536 269.287 143.275L270.791 138.489H287.829L285.915 142.181H280.883V159C280.938 159.629 281.676 160.176 282.086 160.313Z" fill="white" fill-opacity="0.9"/>
<path d="M301.375 159H286.743C287.345 158.48 287.728 158.098 287.728 157.386V140.157C287.728 139.254 287.345 139.036 286.743 138.489H301.375L299.132 142.782C299.159 142.427 298.585 141.716 297.901 141.716H291.939V146.474H297.081L296.014 149.346H291.939V155.964H297.901C298.312 155.964 299.187 155.253 299.132 154.898L301.375 159Z" fill="white" fill-opacity="0.9"/>
</g>
<defs>
<radialGradient id="paint0_radial_236_531" cx="0" cy="0" r="1" gradientUnits="userSpaceOnUse" gradientTransform="translate(334.777 157.361) rotate(-154.454) scale(353.085 2036.98)">
<stop stop-color="#8000FF" stop-opacity="0.89"/>
<stop offset="1" stop-color="white"/>
</radialGradient>
</defs>
</svg>
