<svg width="119" height="125" viewBox="0 0 119 125" fill="none" xmlns="http://www.w3.org/2000/svg">
<path d="M59.5 88.9432C90.7041 88.9432 116 76.9527 116 62.1616C116 47.3705 90.7041 35.3799 59.5 35.3799C28.2959 35.3799 3 47.3705 3 62.1616C3 76.9527 28.2959 88.9432 59.5 88.9432Z" stroke="white" stroke-opacity="0.9" stroke-width="4.31517" stroke-miterlimit="10" stroke-linecap="round" stroke-linejoin="round"/>
<path d="M82.3491 76.1219C98.5752 49.4705 101.488 21.6302 88.8549 13.9388C76.2218 6.24742 52.8268 21.6176 36.6007 48.269C20.3746 74.9204 17.4618 102.761 30.0949 110.452C42.728 118.143 66.123 102.773 82.3491 76.1219Z" stroke="white" stroke-opacity="0.9" stroke-width="4.31517" stroke-miterlimit="10" stroke-linecap="round" stroke-linejoin="round"/>
<path d="M88.8451 110.44C101.478 102.748 98.5655 74.908 82.3394 48.2566C66.1132 21.6052 42.7182 6.23503 30.0851 13.9264C17.4521 21.6178 20.3648 49.4581 36.5909 76.1095C52.8171 102.761 76.2121 118.131 88.8451 110.44Z" stroke="white" stroke-opacity="0.9" stroke-width="4.31517" stroke-miterlimit="10" stroke-linecap="round" stroke-linejoin="round"/>
<path d="M59.5007 69.2511C63.4161 69.2511 66.5902 66.077 66.5902 62.1615C66.5902 58.2461 63.4161 55.072 59.5007 55.072C55.5852 55.072 52.4111 58.2461 52.4111 62.1615C52.4111 66.077 55.5852 69.2511 59.5007 69.2511Z" stroke="white" stroke-opacity="0.9" stroke-width="4.31517" stroke-miterlimit="10" stroke-linecap="round" stroke-linejoin="round"/>
</svg>
