<svg width="56" height="56" viewBox="0 0 56 56" fill="none" xmlns="http://www.w3.org/2000/svg">
<g filter="url(#filter0_dd_245_209)">
<circle cx="28.2391" cy="21.2391" r="10.2391" fill="white"/>
<path fill-rule="evenodd" clip-rule="evenodd" d="M25.0544 15.2663C23.5146 15.2663 22.2663 16.5146 22.2663 18.0544V24.4836C22.2663 26.0234 23.5146 27.2717 25.0544 27.2717H31.4836C33.0234 27.2717 34.2717 26.0234 34.2717 24.4836V18.0544C34.2717 16.5146 33.0234 15.2663 31.4836 15.2663H25.0544ZM21.4131 18.0544C21.4131 16.0433 23.0433 14.4131 25.0544 14.4131H31.4836C33.4947 14.4131 35.1249 16.0433 35.1249 18.0544V24.4836C35.1249 26.4947 33.4947 28.1249 31.4836 28.1249H25.0544C23.0433 28.1249 21.4131 26.4947 21.4131 24.4836V18.0544ZM28.6116 19.1192C28.1653 19.053 27.7095 19.1293 27.309 19.3371C26.9085 19.5449 26.5837 19.8737 26.3809 20.2767C26.178 20.6797 26.1074 21.1364 26.1791 21.5819C26.2508 22.0274 26.4611 22.4389 26.7801 22.7579C27.0992 23.0769 27.5107 23.2873 27.9561 23.3589C28.4016 23.4306 28.8583 23.36 29.2613 23.1572C29.6644 22.9543 29.9932 22.6296 30.201 22.2291C30.4088 21.8286 30.485 21.3728 30.4188 20.9265C30.3513 20.4712 30.1392 20.0497 29.8137 19.7243C29.4883 19.3989 29.0668 19.1867 28.6116 19.1192ZM26.916 18.5797C27.4758 18.2892 28.1129 18.1827 28.7367 18.2752C29.3731 18.3696 29.9622 18.6661 30.4171 19.121C30.872 19.5758 31.1685 20.165 31.2628 20.8013C31.3554 21.4251 31.2488 22.0623 30.9583 22.6221C30.6679 23.1818 30.2083 23.6358 29.645 23.9193C29.0816 24.2029 28.4432 24.3016 27.8206 24.2014C27.1979 24.1012 26.6227 23.8072 26.1768 23.3613C25.7308 22.9153 25.4369 22.3401 25.3367 21.7175C25.2365 21.0948 25.3352 20.4564 25.6187 19.8931C25.9022 19.3298 26.3562 18.8702 26.916 18.5797ZM31.8051 17.3062C31.5695 17.3062 31.3785 17.4972 31.3785 17.7328C31.3785 17.9684 31.5695 18.1594 31.8051 18.1594H31.8125C32.0481 18.1594 32.2391 17.9684 32.2391 17.7328C32.2391 17.4972 32.0481 17.3062 31.8125 17.3062H31.8051Z" fill="black"/>
</g>
<defs>
<filter id="filter0_dd_245_209" x="0.934783" y="0.76087" width="54.6087" height="54.6087" filterUnits="userSpaceOnUse" color-interpolation-filters="sRGB">
<feFlood flood-opacity="0" result="BackgroundImageFix"/>
<feColorMatrix in="SourceAlpha" type="matrix" values="0 0 0 0 0 0 0 0 0 0 0 0 0 0 0 0 0 0 127 0" result="hardAlpha"/>
<feMorphology radius="3.41304" operator="erode" in="SourceAlpha" result="effect1_dropShadow_245_209"/>
<feOffset dy="6.82609"/>
<feGaussianBlur stdDeviation="10.2391"/>
<feColorMatrix type="matrix" values="0 0 0 0 0.0941176 0 0 0 0 0.152941 0 0 0 0 0.294118 0 0 0 0.08 0"/>
<feBlend mode="normal" in2="BackgroundImageFix" result="effect1_dropShadow_245_209"/>
<feColorMatrix in="SourceAlpha" type="matrix" values="0 0 0 0 0 0 0 0 0 0 0 0 0 0 0 0 0 0 127 0" result="hardAlpha"/>
<feMorphology radius="5.11957" operator="erode" in="SourceAlpha" result="effect2_dropShadow_245_209"/>
<feOffset dy="5.11957"/>
<feGaussianBlur stdDeviation="5.11957"/>
<feColorMatrix type="matrix" values="0 0 0 0 0.0941176 0 0 0 0 0.152941 0 0 0 0 0.294118 0 0 0 0.12 0"/>
<feBlend mode="normal" in2="effect1_dropShadow_245_209" result="effect2_dropShadow_245_209"/>
<feBlend mode="normal" in="SourceGraphic" in2="effect2_dropShadow_245_209" result="shape"/>
</filter>
</defs>
</svg>
