<svg width="56" height="56" viewBox="0 0 56 56" fill="none" xmlns="http://www.w3.org/2000/svg">
<g clip-path="url(#clip0_245_206)" filter="url(#filter0_dd_245_206)">
<circle cx="28.2391" cy="21.2391" r="10.2391" fill="white"/>
<path d="M34.8276 22.6444L28.2264 27.212L21.6253 22.6444C21.5368 22.5825 21.4711 22.4954 21.4377 22.3958C21.4043 22.2962 21.4049 22.189 21.4393 22.0897L22.1955 19.859L23.7079 15.4272C23.7226 15.3911 23.7459 15.3587 23.7761 15.3328C23.8252 15.29 23.8893 15.2664 23.9558 15.2664C24.0223 15.2664 24.0865 15.29 24.1356 15.3328C24.1674 15.3621 24.1909 15.3986 24.2037 15.439L25.7161 19.859H30.7367L32.2491 15.4272C32.2637 15.3911 32.2871 15.3587 32.3173 15.3328C32.3664 15.29 32.4305 15.2664 32.497 15.2664C32.5635 15.2664 32.6276 15.29 32.6768 15.3328C32.7086 15.3621 32.7321 15.3986 32.7449 15.439L34.2573 19.8708L35.0445 22.0897C35.0758 22.1921 35.0716 22.3013 35.0325 22.4013C34.9935 22.5012 34.9216 22.5865 34.8276 22.6444V22.6444Z" stroke="black" stroke-width="0.853261" stroke-linecap="round" stroke-linejoin="round"/>
</g>
<defs>
<filter id="filter0_dd_245_206" x="0.934783" y="0.76087" width="54.6087" height="54.6087" filterUnits="userSpaceOnUse" color-interpolation-filters="sRGB">
<feFlood flood-opacity="0" result="BackgroundImageFix"/>
<feColorMatrix in="SourceAlpha" type="matrix" values="0 0 0 0 0 0 0 0 0 0 0 0 0 0 0 0 0 0 127 0" result="hardAlpha"/>
<feMorphology radius="3.41304" operator="erode" in="SourceAlpha" result="effect1_dropShadow_245_206"/>
<feOffset dy="6.82609"/>
<feGaussianBlur stdDeviation="10.2391"/>
<feColorMatrix type="matrix" values="0 0 0 0 0.0941176 0 0 0 0 0.152941 0 0 0 0 0.294118 0 0 0 0.08 0"/>
<feBlend mode="normal" in2="BackgroundImageFix" result="effect1_dropShadow_245_206"/>
<feColorMatrix in="SourceAlpha" type="matrix" values="0 0 0 0 0 0 0 0 0 0 0 0 0 0 0 0 0 0 127 0" result="hardAlpha"/>
<feMorphology radius="5.11957" operator="erode" in="SourceAlpha" result="effect2_dropShadow_245_206"/>
<feOffset dy="5.11957"/>
<feGaussianBlur stdDeviation="5.11957"/>
<feColorMatrix type="matrix" values="0 0 0 0 0.0941176 0 0 0 0 0.152941 0 0 0 0 0.294118 0 0 0 0.12 0"/>
<feBlend mode="normal" in2="effect1_dropShadow_245_206" result="effect2_dropShadow_245_206"/>
<feBlend mode="normal" in="SourceGraphic" in2="effect2_dropShadow_245_206" result="shape"/>
</filter>
<clipPath id="clip0_245_206">
<rect width="20.4783" height="20.4783" fill="white" transform="translate(18 11)"/>
</clipPath>
</defs>
</svg>
