<svg width="826" height="242" viewBox="0 0 826 242" fill="none" xmlns="http://www.w3.org/2000/svg">
<g style="mix-blend-mode:screen">
<path d="M178.304 14.8011H185.487V56H178.304V14.8011ZM197.266 14.8011H211.804L227.605 28.8788H227.835V14.8011H235.017V56H227.835V38.9056L209.218 21.9836H204.449V56H197.266V14.8011ZM260.444 21.1791H242.889V14.8011H285.18V21.1791H267.626V56H260.444V21.1791ZM332.326 26.6666C332.326 28.8884 331.79 30.8995 330.717 32.6999C329.645 34.4812 328.151 35.8985 326.235 36.952C324.32 38.0054 322.137 38.5608 319.685 38.6183L331.867 56H323.276L311.755 38.6183H300.235V56H293.052V14.8011H319.225C321.754 14.8011 324.014 15.3182 326.006 16.3525C327.998 17.3868 329.549 18.8041 330.66 20.6045C331.771 22.405 332.326 24.4256 332.326 26.6666ZM300.235 32.269H318.564C320.614 32.269 322.223 31.7805 323.391 30.8037C324.56 29.8077 325.144 28.4287 325.144 26.6666C325.144 24.8662 324.56 23.5063 323.391 22.5869C322.242 21.6484 320.633 21.1791 318.564 21.1791H300.235V32.269ZM362.579 56.5746C358.48 56.5746 354.717 55.6744 351.288 53.874C347.86 52.0736 345.14 49.5645 343.129 46.3467C341.118 43.1098 340.112 39.4611 340.112 35.4005C340.112 31.34 341.118 27.7009 343.129 24.4831C345.14 21.2462 347.86 18.7275 351.288 16.9271C354.717 15.1267 358.48 14.2265 362.579 14.2265C366.697 14.2265 370.461 15.1267 373.87 16.9271C377.279 18.7275 379.97 21.2366 381.943 24.4544C383.935 27.6721 384.931 31.3209 384.931 35.4005C384.931 39.4611 383.935 43.1098 381.943 46.3467C379.97 49.5645 377.279 52.0736 373.87 53.874C370.461 55.6744 366.697 56.5746 362.579 56.5746ZM362.579 49.823C365.299 49.823 367.779 49.2197 370.02 48.013C372.28 46.7872 374.061 45.0826 375.364 42.8991C376.685 40.6964 377.346 38.1969 377.346 35.4005C377.346 32.6041 376.695 30.1142 375.393 27.9307C374.09 25.7472 372.318 24.0426 370.078 22.8168C367.837 21.5909 365.337 20.978 362.579 20.978C359.802 20.978 357.283 21.5909 355.023 22.8168C352.763 24.0426 350.982 25.7472 349.679 27.9307C348.377 30.1142 347.726 32.6041 347.726 35.4005C347.726 38.2161 348.386 40.7156 349.708 42.8991C351.029 45.0826 352.82 46.7872 355.08 48.013C357.341 49.2197 359.84 49.823 362.579 49.823ZM413.862 14.8011C418.344 14.8011 422.223 15.6534 425.498 17.358C428.773 19.0627 431.273 21.4569 432.996 24.5406C434.739 27.6243 435.611 31.1964 435.611 35.2569C435.611 39.3749 434.749 43.0044 433.025 46.1456C431.301 49.2676 428.821 51.6905 425.584 53.4143C422.366 55.1381 418.574 56 414.207 56H394.182V14.8011H413.862ZM412.799 49.6507C415.979 49.6507 418.708 49.0856 420.987 47.9556C423.266 46.8064 425 45.1496 426.187 42.9853C427.394 40.8209 427.997 38.2448 427.997 35.2569C427.997 30.5835 426.705 27.0688 424.119 24.7129C421.552 22.3571 417.779 21.1791 412.799 21.1791H401.365V49.6507H412.799ZM462.991 56.5746C459.198 56.5746 455.866 55.9042 452.993 54.5635C450.12 53.2228 447.879 51.1829 446.27 48.444C444.661 45.7051 443.856 42.3053 443.856 38.2448V14.8011H451.039V37.7277C451.039 41.7307 452.044 44.8144 454.056 46.9788C456.067 49.1431 459.045 50.2253 462.991 50.2253C466.975 50.2253 469.972 49.1527 471.983 47.0075C473.994 44.8432 475 41.7499 475 37.7277V14.8011H482.182V38.2448C482.182 42.3053 481.368 45.7051 479.74 48.444C478.131 51.1829 475.881 53.2228 472.989 54.5635C470.116 55.9042 466.783 56.5746 462.991 56.5746ZM512.751 56.5746C508.327 56.5746 504.419 55.684 501.029 53.9027C497.658 52.1214 495.044 49.6315 493.186 46.4329C491.347 43.2151 490.428 39.5185 490.428 35.3431C490.428 31.1485 491.414 27.4519 493.387 24.2533C495.379 21.0546 498.08 18.5839 501.489 16.8409C504.917 15.0979 508.719 14.2265 512.895 14.2265C516.783 14.2265 520.25 14.8681 523.295 16.1514C526.34 17.4347 529.003 19.1872 531.282 21.409L526.886 26.8964C522.826 22.9508 518.191 20.978 512.981 20.978C510.07 20.978 507.474 21.5718 505.195 22.7593C502.935 23.9468 501.173 25.6323 499.909 27.8158C498.664 29.9801 498.041 32.4892 498.041 35.3431C498.041 38.2161 498.683 40.7443 499.966 42.9278C501.269 45.1113 503.079 46.8064 505.396 48.013C507.733 49.2197 510.405 49.823 513.412 49.823C516.63 49.823 519.388 49.2005 521.686 47.9556C523.985 46.6915 526.015 45.1209 527.777 43.2438L532.201 48.6451C529.769 51.2117 526.972 53.1749 523.812 54.5348C520.671 55.8947 516.984 56.5746 512.751 56.5746ZM540.648 14.8011H547.831V56H540.648V14.8011ZM559.61 14.8011H574.147L589.949 28.8788H590.179V14.8011H597.361V56H590.179V38.9056L571.562 21.9836H566.792V56H559.61V14.8011ZM630.659 56.5746C625.794 56.5746 621.542 55.684 617.903 53.9027C614.283 52.1214 611.496 49.6315 609.543 46.4329C607.589 43.2151 606.612 39.5185 606.612 35.3431C606.612 31.1868 607.599 27.5093 609.571 24.3107C611.563 21.1121 614.293 18.6317 617.76 16.8696C621.226 15.1075 625.095 14.2265 629.366 14.2265C635.17 14.2265 640.61 15.7587 645.685 18.8233L643.128 25.4025C641.347 24.0234 639.326 22.9413 637.066 22.156C634.825 21.3707 632.393 20.978 629.769 20.978C626.666 20.978 623.937 21.5622 621.581 22.7306C619.244 23.8989 617.434 25.5748 616.151 27.7583C614.867 29.9227 614.226 32.4509 614.226 35.3431C614.226 38.331 614.887 40.9167 616.208 43.1002C617.549 45.2645 619.455 46.9309 621.925 48.0992C624.396 49.2484 627.317 49.823 630.688 49.823C632.374 49.823 633.887 49.7177 635.227 49.507C636.568 49.2772 637.708 49.009 638.646 48.7026C639.604 48.3961 640.83 47.9652 642.324 47.4097V39.078H629.97L629.165 32.7286H649.506V51.9203C646.499 53.3951 643.53 54.5443 640.6 55.3679C637.689 56.1724 634.375 56.5746 630.659 56.5746Z" fill="white" fill-opacity="0.7"/>
</g>
<g style="mix-blend-mode:screen">
<path d="M56.0975 106.64V138L88.8975 106.64H56.0975ZM66.0175 210H25.5375C29.0575 207.44 31.4575 205.52 31.4575 202.16V99.44C31.4575 94.96 29.0575 93.04 25.5375 90H107.137L117.537 100.72L56.0975 164.08V202.16C56.0975 206.32 60.8975 207.92 66.0175 210ZM138.46 106.64V138L171.26 106.64H138.46ZM148.38 210H107.9C111.42 207.44 113.82 205.52 113.82 202.16V99.44C113.82 94.96 111.42 93.04 107.9 90H189.5L199.9 100.72L162.46 138L222.94 241.84L169.18 217.84C171.9 215.92 174.94 212.72 173.66 210L138.46 138V202.16C138.46 206.32 143.26 207.92 148.38 210ZM281.8 210H196.2C199.72 206.96 201.96 204.72 201.96 200.56V99.76C201.96 94.48 199.72 93.2 196.2 90H281.8L268.68 115.12C268.84 113.04 265.48 108.88 261.48 108.88H226.6V136.72H256.68L250.44 153.52H226.6V192.24H261.48C263.88 192.24 269 188.08 268.68 186L281.8 210ZM302.716 106.64V138L335.516 106.64H302.716ZM312.636 210H272.156C275.676 207.44 278.076 205.52 278.076 202.16V99.44C278.076 94.96 275.676 93.04 272.156 90H353.756L364.156 100.72L302.716 164.08V202.16C302.716 206.32 307.516 207.92 312.636 210ZM424.697 210H386.137C388.377 208.24 390.617 206.16 390.617 203.76V97.04C390.617 94 387.417 91.92 384.537 90H428.857L457.337 150L483.737 90H528.857C526.457 92.08 524.057 94.48 524.057 97.52V203.76C524.057 206.32 526.297 208.4 528.537 210H491.097C494.937 207.76 499.417 204.4 499.417 201.2V130L465.017 210H449.657L415.257 130V201.2C415.257 204.4 420.377 207.76 424.697 210ZM577.804 155.28L570.124 110.32L560.684 155.28H577.804ZM555.724 210H519.244C522.764 207.92 524.684 205.84 525.004 203.76L557.164 90H588.204L617.164 203.76C618.124 205.84 621.484 207.92 625.644 210H589.004C591.724 206.96 593.324 204.72 592.524 200.72L581.644 170.32H557.164C557.164 170.32 549.964 199.6 549.644 200.72C548.364 204.72 550.444 206.96 555.724 210ZM690.861 217.68L632.621 241.84C644.461 232.4 658.061 220.24 659.821 210V111.6C649.101 111.6 636.301 111.6 636.301 111.6C626.381 111.6 621.901 113.68 615.981 118L624.781 90H724.461L713.261 111.6H683.821V210C684.141 213.68 688.461 216.88 690.861 217.68ZM800.506 210H714.906C718.426 206.96 720.666 204.72 720.666 200.56V99.76C720.666 94.48 718.426 93.2 714.906 90H800.506L787.386 115.12C787.546 113.04 784.186 108.88 780.186 108.88H745.306V136.72H775.386L769.146 153.52H745.306V192.24H780.186C782.586 192.24 787.706 188.08 787.386 186L800.506 210Z" fill="white" fill-opacity="0.9"/>
</g>
</svg>
