<svg width="137" height="191" viewBox="0 0 137 191" fill="none" xmlns="http://www.w3.org/2000/svg">
<path d="M114.697 174.349L67.1798 186.532L65.0433 176.245C64.5525 173.861 65.8816 171.488 68.0284 170.931L107.776 160.735C109.923 160.19 112.059 161.666 112.56 164.05L114.697 174.349Z" stroke="white" stroke-opacity="0.9" stroke-width="4.39502" stroke-miterlimit="10" stroke-linecap="round"/>
<path d="M99.077 119.028C120.021 100.272 123.31 66.2087 106.423 42.9464C89.5357 19.6841 58.8672 16.0312 37.9229 34.7875C16.9786 53.5438 13.6898 87.6065 30.5771 110.869C47.4643 134.131 78.1327 137.784 99.077 119.028Z" stroke="white" stroke-opacity="0.9" stroke-width="4.39502" stroke-miterlimit="10"/>
<path d="M91.1712 124.775L45.7399 29.0564L40.0662 17.4408C10.45 34.7791 -0.897651 75.4964 14.713 108.39C30.3236 141.284 66.9834 153.888 96.5996 136.55L91.0486 124.854" stroke="white" stroke-opacity="0.9" stroke-width="4.39502" stroke-miterlimit="10" stroke-linecap="round" stroke-linejoin="round"/>
<path d="M53.9153 50.9473C68.7889 42.2373 79.2571 32.1606 76.5 26.3526C73.7429 20.5446 58.8046 21.2048 43.9311 29.9147C30 38.0716 23.2433 53.3112 26.0004 59.1191C28.7575 64.9271 39.0417 59.6572 53.9153 50.9473Z" stroke="white" stroke-opacity="0.9" stroke-width="4.39502" stroke-miterlimit="10"/>
<path d="M59.2461 130.032C69.7452 132.28 80.9804 130.747 91.1728 124.775C101.365 118.802 108.859 109.378 113.122 98.4892C102.623 96.241 91.3875 97.7739 81.1951 103.746C70.9925 109.719 63.5091 119.143 59.2461 130.032Z" stroke="white" stroke-opacity="0.9" stroke-width="4.39502" stroke-miterlimit="10"/>
<path d="M91.21 124.716C103.107 117.749 102.579 90.6738 90.0316 64.2411C77.4838 37.8084 57.6675 22.0282 45.7706 28.9949C33.8738 35.9617 34.4015 63.0373 46.9492 89.47C59.4969 115.903 79.3131 131.683 91.21 124.716Z" stroke="white" stroke-opacity="0.9" stroke-width="4.39502" stroke-miterlimit="10"/>
<path d="M25.3652 102.145L111.546 51.6859" stroke="white" stroke-opacity="0.9" stroke-width="4.39502" stroke-miterlimit="10"/>
<path d="M82.6064 142.443L87.6361 165.742" stroke="white" stroke-opacity="0.9" stroke-width="4.39502" stroke-miterlimit="10"/>
<path d="M61.4736 188.701L122.045 172.566" stroke="white" stroke-opacity="0.9" stroke-width="4.39502" stroke-miterlimit="10" stroke-linecap="round"/>
</svg>
